<?xml version="1.0" encoding="UTF-8"?>
<svg width="103px" height="119px" viewBox="0 0 103 119" version="1.1" xmlns="http://www.w3.org/2000/svg" xmlns:xlink="http://www.w3.org/1999/xlink">
    <!-- Generator: Sketch 55.2 (78181) - https://sketchapp.com -->
    <title>Group</title>
    <desc>Created with Sketch.</desc>
    <g id="Page-1" stroke="none" stroke-width="1" fill="none" fill-rule="evenodd">
        <g id="Artboard" transform="translate(-36.000000, -10.000000)">
            <g id="Group" transform="translate(30.000000, 12.000000)">
                <polygon id="Polygon" stroke="#CA3E47" stroke-width="2" fill="#CA3E47" points="57.5 0 107.296461 28.75 107.296461 86.25 57.5 115 7.70353928 86.25 7.70353928 28.75"></polygon>
                <path d="M60.434,34.186 C48.777,34.186 39.294,43.666 39.294,55.317 C39.294,66.974 48.777,76.457 60.434,76.457 C72.086,76.457 81.564,66.974 81.564,55.317 C81.564,43.666 72.086,34.186 60.434,34.186 Z M60.434,77.758 C48.06,77.758 37.994,67.69 37.994,55.317 C37.994,42.949 48.06,32.886 60.434,32.886 C72.802,32.886 82.865,42.949 82.865,55.317 C82.865,67.69 72.802,77.758 60.434,77.758 L60.434,77.758 Z" id="Fill-284" fill="#FFFFFF"></path>
                <path d="M44.692,40.904 C44.515,40.904 44.339,40.832 44.21,40.69 L31.619,26.782 C31.378,26.516 31.399,26.104 31.665,25.864 C31.929,25.622 32.341,25.643 32.583,25.909 L45.174,39.817 C45.415,40.084 45.394,40.495 45.128,40.735 C45.004,40.849 44.848,40.904 44.692,40.904" id="Fill-285" fill="#FFFFFF"></path>
                <path d="M79.54,44.202 C79.355,44.202 79.172,44.123 79.043,43.971 C78.811,43.696 78.846,43.287 79.121,43.055 L91.372,32.712 C91.645,32.482 92.055,32.516 92.288,32.79 C92.519,33.064 92.484,33.474 92.21,33.706 L79.959,44.049 C79.837,44.151 79.688,44.202 79.54,44.202" id="Fill-286" fill="#FFFFFF"></path>
                <path d="M89.24,77.84 C89.082,77.84 88.924,77.782 88.799,77.666 L78.168,67.812 C77.904,67.568 77.888,67.157 78.133,66.894 C78.377,66.63 78.787,66.615 79.05,66.859 L89.681,76.713 C89.945,76.957 89.961,77.368 89.716,77.631 C89.589,77.769 89.415,77.84 89.24,77.84" id="Fill-287" fill="#FFFFFF"></path>
                <path d="M76.432,88.364 C76.188,88.364 75.954,88.226 75.843,87.989 L69.758,74.993 C69.605,74.668 69.746,74.281 70.071,74.129 C70.393,73.976 70.783,74.116 70.935,74.442 L77.021,87.438 C77.174,87.764 77.033,88.15 76.708,88.303 C76.619,88.345 76.525,88.364 76.432,88.364" id="Fill-288" fill="#FFFFFF"></path>
                <path d="M26.078,87.338 C25.888,87.338 25.699,87.254 25.57,87.094 C25.346,86.814 25.391,86.405 25.671,86.181 L45.055,70.638 C45.335,70.413 45.745,70.459 45.968,70.738 C46.193,71.018 46.148,71.427 45.868,71.651 L26.485,87.194 C26.364,87.291 26.221,87.338 26.078,87.338" id="Fill-289" fill="#FFFFFF"></path>
                <path d="M60.549,34.186 C60.547,34.186 60.544,34.186 60.541,34.186 C60.182,34.182 59.894,33.888 59.898,33.528 L60.065,19.18 C60.07,18.823 60.36,18.537 60.716,18.537 C60.717,18.537 60.72,18.537 60.723,18.537 C61.082,18.542 61.37,18.836 61.366,19.195 L61.199,33.544 C61.194,33.9 60.904,34.186 60.549,34.186" id="Fill-290" fill="#FFFFFF"></path>
                <path d="M60.782,14.301 C59.768,14.301 58.944,15.125 58.944,16.139 C58.944,17.157 59.768,17.985 60.782,17.985 C61.8,17.985 62.628,17.157 62.628,16.139 C62.628,15.125 61.8,14.301 60.782,14.301 Z M60.782,19.286 C59.051,19.286 57.643,17.874 57.643,16.139 C57.643,14.408 59.051,13 60.782,13 C62.516,13 63.928,14.408 63.928,16.139 C63.928,17.874 62.516,19.286 60.782,19.286 L60.782,19.286 Z" id="Fill-291" fill="#FFFFFF"></path>
                <path d="M93.69,29.761 C92.676,29.761 91.852,30.585 91.852,31.599 C91.852,32.612 92.676,33.436 93.69,33.436 C94.71,33.436 95.539,32.612 95.539,31.599 C95.539,30.585 94.71,29.761 93.69,29.761 Z M93.69,34.737 C91.96,34.737 90.551,33.329 90.551,31.599 C90.551,29.868 91.96,28.46 93.69,28.46 C95.426,28.46 96.84,29.868 96.84,31.599 C96.84,33.329 95.426,34.737 93.69,34.737 L93.69,34.737 Z" id="Fill-292" fill="#FFFFFF"></path>
                <path d="M30.425,22.659 C29.411,22.659 28.587,23.482 28.587,24.495 C28.587,25.51 29.411,26.335 30.425,26.335 C31.443,26.335 32.271,25.51 32.271,24.495 C32.271,23.482 31.443,22.659 30.425,22.659 Z M30.425,27.636 C28.695,27.636 27.287,26.227 27.287,24.495 C27.287,22.766 28.695,21.358 30.425,21.358 C32.159,21.358 33.57,22.766 33.57,24.495 C33.57,26.227 32.159,27.636 30.425,27.636 L30.425,27.636 Z" id="Fill-293" fill="#FFFFFF"></path>
                <path d="M24.138,86.408 C23.125,86.408 22.3,87.232 22.3,88.247 C22.3,89.265 23.125,90.093 24.138,90.093 C25.152,90.093 25.977,89.265 25.977,88.247 C25.977,87.232 25.152,86.408 24.138,86.408 Z M24.138,91.394 C22.408,91.394 21,89.981 21,88.247 C21,86.516 22.408,85.107 24.138,85.107 C25.869,85.107 27.277,86.516 27.277,88.247 C27.277,89.981 25.869,91.394 24.138,91.394 L24.138,91.394 Z" id="Fill-294" fill="#FFFFFF"></path>
                <path d="M77.497,88.135 C76.479,88.135 75.651,88.959 75.651,89.972 C75.651,90.985 76.479,91.81 77.497,91.81 C78.508,91.81 79.332,90.985 79.332,89.972 C79.332,88.959 78.508,88.135 77.497,88.135 Z M77.497,93.11 C75.762,93.11 74.35,91.702 74.35,89.972 C74.35,88.242 75.762,86.834 77.497,86.834 C79.225,86.834 80.633,88.242 80.633,89.972 C80.633,91.702 79.225,93.11 77.497,93.11 L77.497,93.11 Z" id="Fill-295" fill="#FFFFFF"></path>
                <path d="M91.065,77.035 C90.051,77.035 89.227,77.864 89.227,78.884 C89.227,79.895 90.051,80.719 91.065,80.719 C92.083,80.719 92.911,79.895 92.911,78.884 C92.911,77.864 92.083,77.035 91.065,77.035 Z M91.065,82.019 C89.335,82.019 87.926,80.612 87.926,78.884 C87.926,77.147 89.335,75.734 91.065,75.734 C92.8,75.734 94.212,77.147 94.212,78.884 C94.212,80.612 92.8,82.019 91.065,82.019 L91.065,82.019 Z" id="Fill-296" fill="#FFFFFF"></path>
                <path d="M60.434,41.254 C52.675,41.254 46.363,47.562 46.363,55.317 C46.363,63.077 52.675,69.39 60.434,69.39 C68.189,69.39 74.498,63.077 74.498,55.317 C74.498,47.562 68.189,41.254 60.434,41.254 Z M60.434,70.69 C51.959,70.69 45.063,63.794 45.063,55.317 C45.063,46.846 51.959,39.953 60.434,39.953 C68.906,39.953 75.799,46.846 75.799,55.317 C75.799,63.794 68.906,70.69 60.434,70.69 L60.434,70.69 Z" id="Fill-297" fill="#FFFFFF"></path>
            </g>
        </g>
    </g>
</svg>